# MagicaVoxel @ Ephtracy

# group
o 

# material
mtllib lvl1-3.mtl
usemtl palette

# normals
vn -1 0 0
vn 1 0 0
vn 0 0 1
vn 0 0 -1
vn 0 -1 0
vn 0 1 0

# texcoords
vt 0.537109 0.5
vt 0.892578 0.5

# verts
v -25.1 0 24.8
v -25.1 0 -0.799999
v -25.1 0.1 -0.599998
v -25.1 0.1 -0.799999
v -25.1 0.4 24.8
v -25.1 0.4 -0.599998
v -25.1 1.2 18.5
v -25.1 1.2 -0.799999
v -25.1 1.3 23.5
v -25.1 1.3 18.5
v -25.1 1.4 24.8
v -25.1 1.4 23.5
v 0.5 0 24.8
v 0.5 0 24.7
v 0.5 0 -0.499998
v 0.5 0 -0.799999
v 0.5 0.1 -0.599998
v 0.5 0.1 -0.799999
v 0.5 0.4 24.8
v 0.5 0.4 24.7
v 0.5 0.4 -0.499998
v 0.5 0.4 -0.599998
v 0.5 1.2 18.5
v 0.5 1.2 -0.799999
v 0.5 1.3 23.5
v 0.5 1.3 18.5
v 0.5 1.4 24.8
v 0.5 1.4 23.5
v -25.1 0 24.8
v -25.1 0.4 24.8
v -25.1 1.4 24.8
v 0.5 0 24.8
v 0.5 0.4 24.8
v 0.5 1.4 24.8
v -25.1 1.3 23.5
v -25.1 1.4 23.5
v 0.5 1.3 23.5
v 0.5 1.4 23.5
v -25.1 1.2 18.5
v -25.1 1.3 18.5
v 0.5 1.2 18.5
v 0.5 1.3 18.5
v -25.1 0 -0.799999
v -25.1 0.1 -0.799999
v -25.1 1.2 -0.799999
v 0.5 0 -0.799999
v 0.5 0.1 -0.799999
v 0.5 1.2 -0.799999
v -25.1 0 24.8
v 0.5 0 24.8
v -19.4 0 24.7
v 0.5 0 24.7
v -19.4 0 -0.499998
v 0.5 0 -0.499998
v -25.1 0 -0.799999
v 0.5 0 -0.799999
v -25.1 1.2 18.5
v 0.5 1.2 18.5
v -25.1 1.2 -0.799999
v 0.5 1.2 -0.799999
v -25.1 1.3 23.5
v 0.5 1.3 23.5
v -25.1 1.3 18.5
v 0.5 1.3 18.5
v -25.1 1.4 24.8
v 0.5 1.4 24.8
v -25.1 1.4 23.5
v 0.5 1.4 23.5

# faces
f 3/1/1 2/1/1 1/1/1
f 4/1/1 2/1/1 3/1/1
f 5/1/1 3/1/1 1/1/1
f 6/2/1 4/2/1 3/2/1
f 6/1/1 3/1/1 5/1/1
f 7/2/1 6/2/1 5/2/1
f 8/2/1 4/2/1 6/2/1
f 8/2/1 6/2/1 7/2/1
f 9/2/1 7/2/1 5/2/1
f 10/2/1 7/2/1 9/2/1
f 11/2/1 9/2/1 5/2/1
f 12/2/1 9/2/1 11/2/1
f 15/1/2 16/1/2 17/1/2
f 17/1/2 16/1/2 18/1/2
f 13/1/2 14/1/2 19/1/2
f 14/2/2 15/2/2 20/2/2
f 19/1/2 14/1/2 20/1/2
f 15/1/2 17/1/2 21/1/2
f 20/2/2 15/2/2 21/2/2
f 17/2/2 18/2/2 22/2/2
f 21/1/2 17/1/2 22/1/2
f 19/2/2 20/2/2 23/2/2
f 20/2/2 21/2/2 23/2/2
f 21/2/2 22/2/2 23/2/2
f 22/2/2 18/2/2 24/2/2
f 23/2/2 22/2/2 24/2/2
f 19/2/2 23/2/2 25/2/2
f 25/2/2 23/2/2 26/2/2
f 19/2/2 25/2/2 27/2/2
f 27/2/2 25/2/2 28/2/2
f 32/1/3 30/1/3 29/1/3
f 33/2/3 31/2/3 30/2/3
f 33/1/3 30/1/3 32/1/3
f 34/2/3 31/2/3 33/2/3
f 35/2/4 36/2/4 37/2/4
f 37/2/4 36/2/4 38/2/4
f 39/2/4 40/2/4 41/2/4
f 41/2/4 40/2/4 42/2/4
f 43/1/4 44/1/4 46/1/4
f 44/2/4 45/2/4 47/2/4
f 46/1/4 44/1/4 47/1/4
f 47/2/4 45/2/4 48/2/4
f 51/1/5 50/1/5 49/1/5
f 52/1/5 50/1/5 51/1/5
f 53/1/5 51/1/5 49/1/5
f 53/2/5 52/2/5 51/2/5
f 54/2/5 52/2/5 53/2/5
f 55/1/5 53/1/5 49/1/5
f 55/1/5 54/1/5 53/1/5
f 56/1/5 54/1/5 55/1/5
f 57/2/6 58/2/6 59/2/6
f 59/2/6 58/2/6 60/2/6
f 61/2/6 62/2/6 63/2/6
f 63/2/6 62/2/6 64/2/6
f 65/2/6 66/2/6 67/2/6
f 67/2/6 66/2/6 68/2/6
